<svg xmlns="http://www.w3.org/2000/svg" width="20" height="20" viewBox="0 0 20 20">
  <g id="Grupo_4" data-name="Grupo 4" transform="translate(-2 -2)">
    <g id="Grupo_3" data-name="Grupo 3">
      <g id="Grupo_2" data-name="Grupo 2">
        <path id="Trazado_3" data-name="Trazado 3" d="M11.88,9.14a1.678,1.678,0,0,1,1.63,1.66H15.3a3.208,3.208,0,0,0-3.45-3.19C9.64,7.61,8,9,8,12.14c0,1.94.93,4.24,3.84,4.24a3.252,3.252,0,0,0,3.44-2.95H13.49a1.548,1.548,0,0,1-1.63,1.44C10.55,14.83,10,13.81,10,12.14,10,9.25,11.28,9.16,11.88,9.14ZM12,2A10,10,0,1,0,22,12,10,10,0,0,0,12,2Zm0,18a8,8,0,1,1,8-8A8.011,8.011,0,0,1,12,20Z" fill="#cfe6e9"/>
      </g>
    </g>
  </g>
</svg>
