<?xml version="1.0" encoding="UTF-8"?>
<svg xmlns="http://www.w3.org/2000/svg" xmlns:xlink="http://www.w3.org/1999/xlink" width="32pt" height="32pt" viewBox="0 0 32 32" version="1.1">
<g id="surface27090">
<path style=" stroke:none;fill-rule:nonzero;fill:rgb(100%,100%,100%);fill-opacity:1;" d="M 16 4 C 9.382812 4 4 9.382812 4 16 C 4 22.617188 9.382812 28 16 28 C 22.617188 28 28 22.617188 28 16 C 28 9.382812 22.617188 4 16 4 Z M 16 6 C 21.535156 6 26 10.464844 26 16 C 26 21.027344 22.3125 25.160156 17.488281 25.878906 L 17.488281 18.917969 L 20.335938 18.917969 L 20.785156 16.023438 L 17.488281 16.023438 L 17.488281 14.445312 C 17.488281 13.242188 17.882812 12.175781 19.003906 12.175781 L 20.8125 12.175781 L 20.8125 9.652344 C 20.492188 9.609375 19.824219 9.515625 18.554688 9.515625 C 15.90625 9.515625 14.355469 10.914062 14.355469 14.101562 L 14.355469 16.023438 L 11.632812 16.023438 L 11.632812 18.917969 L 14.355469 18.917969 L 14.355469 25.855469 C 9.609375 25.070312 6 20.972656 6 16 C 6 10.464844 10.464844 6 16 6 Z M 16 6 "/>
</g>
</svg>
