<?xml version="1.0" encoding="UTF-8"?>
<svg xmlns="http://www.w3.org/2000/svg" xmlns:xlink="http://www.w3.org/1999/xlink" width="64pt" height="64pt" viewBox="0 0 64 64" version="1.1">
<g id="surface29731">
<path style=" stroke:none;fill-rule:nonzero;fill:rgb(100%,100%,100%);fill-opacity:1;" d="M 57.59375 16.085938 C 57.308594 15.746094 56.832031 15.636719 56.425781 15.816406 C 55.8125 16.085938 55.179688 16.328125 54.535156 16.535156 C 55.359375 15.5 55.996094 14.316406 56.40625 13.042969 C 56.535156 12.648438 56.40625 12.214844 56.082031 11.957031 C 55.757812 11.695312 55.308594 11.660156 54.949219 11.871094 C 53.175781 12.914062 51.277344 13.660156 49.308594 14.097656 C 47.242188 12.121094 44.449219 11 41.554688 11 C 35.386719 11 30.367188 15.976562 30.367188 22.097656 C 30.367188 22.5 30.386719 22.90625 30.433594 23.3125 C 23.023438 22.605469 16.144531 18.96875 11.40625 13.207031 C 11.199219 12.957031 10.886719 12.824219 10.554688 12.847656 C 10.230469 12.871094 9.9375 13.054688 9.773438 13.335938 C 8.777344 15.011719 8.253906 16.945312 8.253906 18.925781 C 8.253906 21.375 9.058594 23.707031 10.5 25.605469 C 10.207031 25.484375 9.921875 25.347656 9.640625 25.195312 C 9.328125 25.027344 8.953125 25.035156 8.652344 25.214844 C 8.351562 25.398438 8.164062 25.722656 8.164062 26.074219 L 8.164062 26.195312 C 8.164062 29.902344 10.03125 33.265625 12.949219 35.296875 C 12.9375 35.296875 12.925781 35.292969 12.914062 35.289062 C 12.566406 35.226562 12.214844 35.351562 11.984375 35.617188 C 11.753906 35.882812 11.679688 36.25 11.785156 36.585938 C 12.96875 40.230469 15.9375 42.953125 19.554688 43.914062 C 16.554688 45.6875 13.15625 46.613281 9.597656 46.613281 C 8.8125 46.613281 8.035156 46.566406 7.289062 46.476562 C 6.824219 46.417969 6.386719 46.695312 6.226562 47.132812 C 6.070312 47.574219 6.238281 48.0625 6.636719 48.3125 C 11.476562 51.378906 17.0625 53 22.789062 53 C 41.5625 53 52.777344 37.882812 52.777344 23.265625 C 52.777344 22.992188 52.773438 22.722656 52.765625 22.453125 C 54.671875 21.03125 56.316406 19.296875 57.660156 17.285156 C 57.90625 16.914062 57.882812 16.425781 57.59375 16.085938 Z M 51.167969 21.144531 C 50.886719 21.339844 50.730469 21.664062 50.746094 22.007812 C 50.765625 22.421875 50.777344 22.84375 50.777344 23.265625 C 50.777344 36.898438 40.308594 51 22.789062 51 C 18.808594 51 14.894531 50.160156 11.289062 48.546875 C 15.515625 48.226562 19.488281 46.699219 22.867188 44.078125 C 23.199219 43.820312 23.335938 43.378906 23.203125 42.976562 C 23.066406 42.574219 22.695312 42.300781 22.273438 42.289062 C 18.890625 42.226562 15.867188 40.339844 14.324219 37.453125 C 15.4375 37.492188 16.527344 37.355469 17.601562 37.0625 C 18.046875 36.9375 18.351562 36.523438 18.335938 36.0625 C 18.316406 35.597656 17.984375 35.207031 17.53125 35.117188 C 13.757812 34.363281 10.898438 31.34375 10.285156 27.667969 C 11.410156 28.070312 12.585938 28.300781 13.753906 28.335938 C 14.214844 28.347656 14.601562 28.0625 14.738281 27.640625 C 14.875 27.214844 14.710938 26.75 14.339844 26.503906 C 11.78125 24.804688 10.253906 21.972656 10.253906 18.925781 C 10.253906 17.792969 10.464844 16.675781 10.867188 15.640625 C 16.1875 21.46875 23.652344 25 31.582031 25.398438 C 31.910156 25.421875 32.199219 25.285156 32.398438 25.042969 C 32.601562 24.800781 32.679688 24.480469 32.605469 24.175781 C 32.445312 23.488281 32.367188 22.789062 32.367188 22.097656 C 32.367188 17.082031 36.488281 13 41.554688 13 C 44.09375 13 46.535156 14.046875 48.257812 15.871094 C 48.492188 16.121094 48.835938 16.230469 49.171875 16.167969 C 50.558594 15.902344 51.910156 15.496094 53.222656 14.960938 C 52.492188 15.964844 51.554688 16.824219 50.460938 17.472656 C 50.054688 17.714844 49.871094 18.207031 50.027344 18.65625 C 50.179688 19.105469 50.621094 19.386719 51.09375 19.324219 C 52.046875 19.210938 52.980469 19.035156 53.890625 18.800781 C 53.058594 19.664062 52.148438 20.449219 51.167969 21.144531 Z M 51.167969 21.144531 "/>
<path style=" stroke:none;fill-rule:nonzero;fill:rgb(100%,100%,100%);fill-opacity:1;" d="M 30.773438 45.785156 L 31.394531 47.6875 C 38.515625 45.359375 44.21875 39.773438 47.035156 32.355469 L 45.164062 31.644531 C 43.636719 35.671875 39.734375 42.859375 30.773438 45.785156 Z M 30.773438 45.785156 "/>
<path style=" stroke:none;fill-rule:nonzero;fill:rgb(100%,100%,100%);fill-opacity:1;" d="M 44 20 C 44 21.105469 43.105469 22 42 22 C 40.894531 22 40 21.105469 40 20 C 40 18.894531 40.894531 18 42 18 C 43.105469 18 44 18.894531 44 20 Z M 44 20 "/>
</g>
</svg>
